<svg xmlns="http://www.w3.org/2000/svg" width="1700" height="1120" viewBox="0 0 1700 1120">
  <defs>
    <style>
      .bg { fill:#f8fafc; stroke:#cbd5e1; stroke-width:2; rx:12; }
      .zone { stroke:#94a3b8; stroke-width:2; rx:10; }
      .box { fill:#fff; stroke:#64748b; stroke-width:1.4; rx:8; }
      .t1 { font:700 28px Arial,sans-serif; fill:#0f172a; }
      .t2 { font:700 18px Arial,sans-serif; fill:#0f172a; }
      .tx { font:13px Arial,sans-serif; fill:#1f2937; }
      .ar { stroke:#334155; stroke-width:2.4; fill:none; marker-end:url(#a); }
      .ctl { stroke:#475569; stroke-width:2.2; stroke-dasharray:7 6; fill:none; marker-end:url(#b); }
    </style>
    <marker id="a" viewBox="0 0 10 10" refX="9" refY="5" markerWidth="8" markerHeight="8" orient="auto">
      <path d="M0 0 L10 5 L0 10 z" fill="#334155"/>
    </marker>
    <marker id="b" viewBox="0 0 10 10" refX="9" refY="5" markerWidth="8" markerHeight="8" orient="auto">
      <path d="M0 0 L10 5 L0 10 z" fill="#475569"/>
    </marker>
  </defs>

  <rect x="20" y="20" width="1660" height="1080" class="bg"/>
  <text x="50" y="62" class="t1">Ti Garantias - Arquitectura Ejecutiva (v1)</text>
  <image href="icons/azure/subscription.svg" x="30" y="72" width="16" height="16"/>
  <text x="50" y="88" class="tx">Suscripcion: Suscripcion de Azure 1</text>

  <rect x="50" y="110" width="1600" height="360" class="zone" fill="#eff6ff"/>
  <text x="70" y="140" class="t2">Flujo de Aplicacion (Runtime)</text>
  <rect x="80" y="190" width="220" height="92" class="box"/>
  <text x="98" y="225" class="tx">Usuarios</text>
  <text x="98" y="247" class="tx">Internet</text>
  <rect x="350" y="190" width="280" height="92" class="box"/>
  <image href="icons/azure/container-app.svg" x="352" y="210" width="16" height="16"/>
  <text x="368" y="225" class="tx">CA Frontend: tigarantias-dev-fe</text>
  <text x="368" y="247" class="tx">Public ingress :80</text>
  <rect x="680" y="190" width="280" height="92" class="box"/>
  <image href="icons/azure/container-app.svg" x="682" y="210" width="16" height="16"/>
  <text x="698" y="225" class="tx">CA Backend: tigarantias-dev-be</text>
  <text x="698" y="247" class="tx">Internal ingress :8080</text>
  <rect x="1010" y="190" width="260" height="92" class="box"/>
  <image href="icons/azure/postgresql.svg" x="1012" y="210" width="16" height="16"/>
  <text x="1028" y="225" class="tx">PostgreSQL Flexible</text>
  <text x="1028" y="247" class="tx">tigarantias-dev-pg-tgd1</text>
  <rect x="1320" y="190" width="300" height="92" class="box"/>
  <image href="icons/azure/log-analytics.svg" x="1322" y="210" width="16" height="16"/>
  <text x="1338" y="225" class="tx">Log Analytics</text>
  <text x="1338" y="247" class="tx">tigarantias-dev-law</text>

  <rect x="350" y="330" width="280" height="92" class="box"/>
  <image href="icons/azure/managed-identity.svg" x="352" y="350" width="16" height="16"/>
  <text x="368" y="365" class="tx">Managed Identity</text>
  <text x="368" y="387" class="tx">tigarantias-dev-ca-mi</text>
  <rect x="680" y="330" width="280" height="92" class="box"/>
  <image href="icons/azure/key-vault.svg" x="682" y="350" width="16" height="16"/>
  <text x="698" y="365" class="tx">Key Vault</text>
  <text x="698" y="387" class="tx">tigarantiasdevtgd1kv</text>
  <rect x="1010" y="330" width="260" height="92" class="box"/>
  <image href="icons/azure/container-app-env.svg" x="1012" y="350" width="16" height="16"/>
  <text x="1028" y="365" class="tx">Managed Environment</text>
  <text x="1028" y="387" class="tx">tigarantias-dev-cae</text>

  <path d="M300 236 L350 236" class="ar"/>
  <path d="M630 236 L680 236" class="ar"/>
  <path d="M960 236 L1010 236" class="ar"/>
  <path d="M490 330 L490 300 L820 300 L820 330" class="ctl"/>
  <path d="M820 330 L820 282" class="ctl"/>
  <path d="M1140 330 L1140 300 L1460 300 L1460 282" class="ctl"/>

  <rect x="50" y="490" width="1600" height="300" class="zone" fill="#fff7ed"/>
  <text x="70" y="520" class="t2">Flujo de CI/CD</text>
  <rect x="80" y="560" width="240" height="95" class="box"/>
  <text x="98" y="595" class="tx">Repositorio Git</text>
  <text x="98" y="617" class="tx">main/branches + Jenkinsfile</text>
  <rect x="360" y="560" width="330" height="95" class="box"/>
  <image href="icons/azure/vm.svg" x="362" y="580" width="16" height="16"/>
  <text x="378" y="595" class="tx">VM Jenkins (shared-rg)</text>
  <text x="378" y="617" class="tx">10.40.1.4 / 74.249.157.233</text>
  <rect x="730" y="560" width="300" height="95" class="box"/>
  <text x="748" y="595" class="tx">Jenkins Container</text>
  <text x="748" y="617" class="tx">build, test, push, terraform</text>
  <rect x="1070" y="560" width="240" height="95" class="box"/>
  <text x="1088" y="595" class="tx">Docker Hub</text>
  <text x="1088" y="617" class="tx">imagenes FE/BE</text>
  <rect x="1350" y="560" width="270" height="95" class="box"/>
  <image href="icons/azure/storage-account.svg" x="1352" y="580" width="16" height="16"/>
  <text x="1368" y="595" class="tx">TF State Storage</text>
  <text x="1368" y="617" class="tx">sttigarantiastfstate01</text>

  <path d="M320 606 L360 606" class="ar"/>
  <path d="M690 606 L730 606" class="ar"/>
  <path d="M1030 606 L1070 606" class="ar"/>
  <path d="M1030 632 L1350 632" class="ctl"/>

  <rect x="50" y="810" width="1600" height="130" class="zone" fill="#ecfeff"/>
  <image href="icons/azure/resource-groups.svg" x="52" y="832" width="16" height="16"/>
  <text x="70" y="842" class="t2">Resource Groups actuales detectados</text>
  <text x="70" y="872" class="tx">rg-ti-garantias-tfstate | NetworkWatcherRG | tigarantias-shared-rg | tigarantias-dev-rg</text>
  <text x="70" y="900" class="tx">Nota: no se detecto tigarantias-test-rg. En shared-rg corren: ti-garantias-grafana, ti-garantias-prometheus, ti-garantias-loki, ti-garantias-promtail, ti-garantias-cadvisor.</text>

  <rect x="50" y="960" width="1600" height="120" class="box"/>
  <text x="70" y="994" class="t2">Leyenda Informativa</text>
  <text x="70" y="1020" class="tx">Linea continua: flujo runtime y de datos.</text>
  <text x="70" y="1044" class="tx">Linea punteada: control, secretos y estado Terraform.</text>
  <text x="70" y="1068" class="tx">Flujo principal: Usuario -> FE -> BE -> PostgreSQL.</text>
</svg>
